<svg width="160" height="160" viewBox="0 0 160 160" fill="none" xmlns="http://www.w3.org/2000/svg">
<path d="M0 80C0 101.217 8.42855 121.566 23.4315 136.569C38.4344 151.571 58.7827 160 80 160C101.217 160 121.566 151.571 136.569 136.569C151.571 121.566 160 101.217 160 80C160 58.7827 151.571 38.4344 136.569 23.4315C121.566 8.42855 101.217 0 80 0C58.7827 0 38.4344 8.42855 23.4315 23.4315C8.42855 38.4344 0 58.7827 0 80Z" fill="#343333"/>
<path d="M118.668 141.97C118.668 144.078 101.204 145.786 79.668 145.786C58.132 145.786 40.668 144.078 40.668 141.97C40.668 139.862 58.132 138.154 79.668 138.154C101.204 138.154 118.668 139.862 118.668 141.97Z" fill="#5A5A5A"/>
<path d="M39.974 19.306H119.348V126.156H39.974V19.306Z" fill="white"/>
<path d="M39.974 19.306H119.348V126.156H39.974V19.306Z" stroke="#5A5A5A" stroke-width="2"/>
<path d="M130.378 103.876C130.378 104.463 130.145 105.026 129.73 105.441C129.315 105.856 128.753 106.089 128.166 106.09H119.348V91.174H130.378V103.876Z" fill="#5A5A5A" stroke="#5A5A5A" stroke-width="2" stroke-linejoin="round"/>
<path d="M119.348 46.444H130.38V61.36H119.348V46.444Z" fill="white" stroke="#5A5A5A" stroke-width="2" stroke-linejoin="round"/>
<path d="M119.348 61.354H130.38V76.27H119.348V61.354Z" fill="#5A5A5A" stroke="#5A5A5A" stroke-width="2" stroke-linejoin="round"/>
<path d="M119.348 76.264H130.38V91.18H119.348V76.264Z" fill="white" stroke="#5A5A5A" stroke-width="2" stroke-linejoin="round"/>
<path d="M130.378 46.45H119.348V31.534H128.166C128.753 31.534 129.315 31.767 129.73 32.1819C130.145 32.5967 130.378 33.1593 130.378 33.746V46.45Z" fill="#5A5A5A" stroke="#5A5A5A" stroke-width="2" stroke-linejoin="round"/>
<path d="M65.922 74.256H108.662V107.838H65.922V74.256Z" fill="#5A5A5A" stroke="#5A5A5A" stroke-width="2"/>
<path d="M73.554 83.414H101.03" stroke="#5A5A5A" stroke-width="2" stroke-linecap="round" stroke-linejoin="round"/>
<path d="M73.554 91.046H101.03" stroke="#5A5A5A" stroke-width="2" stroke-linecap="round" stroke-linejoin="round"/>
<path d="M73.554 98.678H101.03" stroke="#5A5A5A" stroke-width="2" stroke-linecap="round" stroke-linejoin="round"/>
<path d="M87.734 39.282C86.2369 39.2862 84.7554 39.5852 83.3739 40.162C81.9924 40.7388 80.738 41.582 79.6824 42.6436C78.6268 43.7052 77.7906 44.9643 77.2215 46.349C76.6525 47.7337 76.3618 49.2169 76.366 50.714C76.3702 52.2111 76.6692 53.6926 77.246 55.0742C77.8228 56.4557 78.6661 57.71 79.7276 58.7656C80.7892 59.8213 82.0483 60.6574 83.433 61.2265C84.8177 61.7955 86.3009 62.0862 87.798 62.082C91.952 62.082 97.146 58.996 97.146 57.264C97.1458 57.1637 97.1248 57.0646 97.0844 56.9728C97.044 56.8811 96.985 56.7987 96.9111 56.7308C96.8373 56.663 96.7502 56.6112 96.6554 56.5787C96.5605 56.5462 96.4599 56.5337 96.36 56.542C94.6 56.534 93.338 60 88.018 60C86.767 60.0637 85.5159 59.8747 84.3395 59.4443C83.1631 59.0139 82.0855 58.3509 81.1709 57.4948C80.2563 56.6388 79.5236 55.6073 79.0164 54.4619C78.5093 53.3165 78.238 52.0807 78.2189 50.8281C78.1999 49.5756 78.4333 48.3321 78.9053 47.1718C79.3774 46.0114 80.0783 44.9581 80.9664 44.0746C81.8545 43.1911 82.9114 42.4956 84.0741 42.0295C85.2369 41.5635 86.4816 41.3365 87.734 41.362C92.236 41.362 96.36 44.162 96.36 49.044C96.36 52.286 94.22 55.278 92.206 55.278C92.084 55.292 91.9604 55.2776 91.8448 55.2361C91.7292 55.1946 91.6247 55.1271 91.5394 55.0387C91.4541 54.9503 91.3903 54.8435 91.353 54.7265C91.3156 54.6095 91.3057 54.4854 91.324 54.364C91.3492 53.9247 91.4333 53.4909 91.574 53.074L93.528 46.336C93.6585 45.9706 93.7425 45.5903 93.778 45.204C93.778 44.698 93.274 44.51 92.778 44.51C92.4912 44.4738 92.2013 44.5481 91.9673 44.7179C91.7333 44.8876 91.5726 45.1401 91.518 45.424L91.118 46.68C90.8176 45.9582 90.3037 45.3456 89.6453 44.9241C88.9868 44.5027 88.2152 44.2926 87.434 44.322C83.186 44.322 80.32 48.478 80.32 52.474C80.3025 53.1122 80.412 53.7475 80.6423 54.3429C80.8726 54.9384 81.2191 55.482 81.6615 55.9423C82.1039 56.4026 82.6334 56.7703 83.2193 57.024C83.8052 57.2777 84.4356 57.4123 85.074 57.42C85.7666 57.3751 86.4434 57.1928 87.0649 56.8838C87.6864 56.5747 88.2402 56.1451 88.694 55.62H88.758C88.7798 55.8844 88.8546 56.1416 88.978 56.3765C89.1014 56.6113 89.2707 56.8189 89.476 56.9869C89.6813 57.1548 89.9184 57.2797 90.173 57.3542C90.4276 57.4286 90.6946 57.451 90.958 57.42C93.1385 57.2544 95.1698 56.2496 96.6245 54.617C98.0792 52.9843 98.844 50.851 98.758 48.666C98.758 43.094 93.69 39.286 87.74 39.286L87.734 39.282ZM85.656 55.022C85.2983 55.0123 84.9461 54.9304 84.6208 54.7813C84.2954 54.6322 84.0035 54.419 83.7626 54.1543C83.5217 53.8897 83.3367 53.5791 83.2187 53.2412C83.1007 52.9033 83.0522 52.5451 83.076 52.188C83.076 49.828 84.554 46.71 87.578 46.71C89.15 46.71 89.938 47.436 89.938 48.978C89.938 50.74 88.772 55.022 85.656 55.022Z" fill="#5A5A5A"/>
<path d="M55.238 126.154H45.284C44.5866 126.154 43.896 126.017 43.2516 125.75C42.6073 125.484 42.0218 125.092 41.5287 124.599C41.0355 124.106 40.6444 123.521 40.3777 122.876C40.1109 122.232 39.9737 121.541 39.974 120.844V24.614C39.974 23.2062 40.5332 21.8561 41.5287 20.8607C42.5241 19.8652 43.8742 19.306 45.282 19.306H55.238V126.154Z" fill="#5A5A5A"/>
<path d="M55.238 126.154H45.284C44.5866 126.154 43.896 126.017 43.2516 125.75C42.6073 125.484 42.0218 125.092 41.5287 124.599C41.0355 124.106 40.6444 123.521 40.3777 122.876C40.1109 122.232 39.9737 121.541 39.974 120.844V24.614C39.974 23.2062 40.5332 21.8561 41.5287 20.8607C42.5241 19.8652 43.8742 19.306 45.282 19.306H55.238V126.154Z" stroke="#5A5A5A" stroke-width="2"/>
</svg>
